<mxfile host="app.diagrams.net" agent="Mozilla/5.0 (Macintosh; Intel Mac OS X 10_15_7) AppleWebKit/605.1.15 (KHTML, like Gecko) Version/18.4 Safari/605.1.15" version="27.0.5">
  <diagram name="ページ1" id="E-z_LBdQP0Be9PS-l6ID">
    <mxGraphModel dx="1176" dy="862" grid="1" gridSize="10" guides="1" tooltips="1" connect="1" arrows="1" fold="1" page="1" pageScale="1" pageWidth="1920" pageHeight="1200" math="0" shadow="0">
      <root>
        <mxCell id="0" />
        <mxCell id="1" parent="0" />
        <mxCell id="wZvX-OgocokZKJilJfJC-21" value="window" style="verticalAlign=top;align=left;spacingTop=8;spacingLeft=2;spacingRight=12;shape=cube;size=10;direction=south;fontStyle=4;html=1;whiteSpace=wrap;strokeColor=light-dark(#000000,#7EA6E0);fontColor=light-dark(#000000,#7EA6E0);" parent="1" vertex="1">
          <mxGeometry x="390" y="810" width="690" height="340" as="geometry" />
        </mxCell>
        <mxCell id="wZvX-OgocokZKJilJfJC-22" value="Modules" style="verticalAlign=top;align=left;spacingTop=8;spacingLeft=2;spacingRight=12;shape=cube;size=10;direction=south;fontStyle=4;html=1;whiteSpace=wrap;strokeColor=light-dark(#000000,#9AC7BF);fontColor=light-dark(#000000,#9AC7BF);" parent="1" vertex="1">
          <mxGeometry x="420" y="860" width="200" height="110" as="geometry" />
        </mxCell>
        <mxCell id="wZvX-OgocokZKJilJfJC-18" value="Class" style="verticalAlign=top;align=left;spacingTop=8;spacingLeft=2;spacingRight=12;shape=cube;size=10;direction=south;fontStyle=4;html=1;whiteSpace=wrap;fontColor=light-dark(#000000,#7EA6E0);strokeColor=light-dark(#000000,#7EA6E0);" parent="1" vertex="1">
          <mxGeometry x="390" y="400" width="1200" height="380" as="geometry" />
        </mxCell>
        <mxCell id="wZvX-OgocokZKJilJfJC-8" value="Modules" style="verticalAlign=top;align=left;spacingTop=8;spacingLeft=2;spacingRight=12;shape=cube;size=10;direction=south;fontStyle=4;html=1;whiteSpace=wrap;strokeColor=light-dark(#000000,#7EA6E0);fontColor=light-dark(#000000,#7EA6E0);" parent="1" vertex="1">
          <mxGeometry x="390" y="10" width="1200" height="370" as="geometry" />
        </mxCell>
        <mxCell id="wZvX-OgocokZKJilJfJC-24" style="edgeStyle=orthogonalEdgeStyle;rounded=0;orthogonalLoop=1;jettySize=auto;html=1;entryX=0;entryY=0.5;entryDx=0;entryDy=0;" parent="1" source="wZvX-OgocokZKJilJfJC-7" target="wZvX-OgocokZKJilJfJC-9" edge="1">
          <mxGeometry relative="1" as="geometry">
            <Array as="points">
              <mxPoint x="340" y="205" />
              <mxPoint x="340" y="80" />
            </Array>
          </mxGeometry>
        </mxCell>
        <mxCell id="wZvX-OgocokZKJilJfJC-25" style="edgeStyle=orthogonalEdgeStyle;rounded=0;orthogonalLoop=1;jettySize=auto;html=1;" parent="1" source="wZvX-OgocokZKJilJfJC-7" target="wZvX-OgocokZKJilJfJC-11" edge="1">
          <mxGeometry relative="1" as="geometry">
            <Array as="points">
              <mxPoint x="340" y="205" />
              <mxPoint x="340" y="140" />
            </Array>
          </mxGeometry>
        </mxCell>
        <mxCell id="wZvX-OgocokZKJilJfJC-26" style="edgeStyle=orthogonalEdgeStyle;rounded=0;orthogonalLoop=1;jettySize=auto;html=1;entryX=0;entryY=0.5;entryDx=0;entryDy=0;" parent="1" source="wZvX-OgocokZKJilJfJC-7" target="wZvX-OgocokZKJilJfJC-14" edge="1">
          <mxGeometry relative="1" as="geometry">
            <Array as="points">
              <mxPoint x="340" y="205" />
              <mxPoint x="340" y="200" />
            </Array>
          </mxGeometry>
        </mxCell>
        <mxCell id="wZvX-OgocokZKJilJfJC-27" style="edgeStyle=orthogonalEdgeStyle;rounded=0;orthogonalLoop=1;jettySize=auto;html=1;entryX=0;entryY=0.5;entryDx=0;entryDy=0;" parent="1" source="wZvX-OgocokZKJilJfJC-7" target="wZvX-OgocokZKJilJfJC-15" edge="1">
          <mxGeometry relative="1" as="geometry">
            <Array as="points">
              <mxPoint x="340" y="205" />
              <mxPoint x="340" y="260" />
            </Array>
          </mxGeometry>
        </mxCell>
        <mxCell id="wZvX-OgocokZKJilJfJC-28" style="edgeStyle=orthogonalEdgeStyle;rounded=0;orthogonalLoop=1;jettySize=auto;html=1;" parent="1" source="wZvX-OgocokZKJilJfJC-7" target="wZvX-OgocokZKJilJfJC-16" edge="1">
          <mxGeometry relative="1" as="geometry">
            <Array as="points">
              <mxPoint x="340" y="205" />
              <mxPoint x="340" y="320" />
            </Array>
          </mxGeometry>
        </mxCell>
        <mxCell id="wZvX-OgocokZKJilJfJC-29" style="edgeStyle=orthogonalEdgeStyle;rounded=0;orthogonalLoop=1;jettySize=auto;html=1;" parent="1" source="wZvX-OgocokZKJilJfJC-7" target="wZvX-OgocokZKJilJfJC-17" edge="1">
          <mxGeometry relative="1" as="geometry">
            <Array as="points">
              <mxPoint x="340" y="205" />
              <mxPoint x="340" y="50" />
              <mxPoint x="785" y="50" />
            </Array>
          </mxGeometry>
        </mxCell>
        <mxCell id="wZvX-OgocokZKJilJfJC-31" style="edgeStyle=orthogonalEdgeStyle;rounded=0;orthogonalLoop=1;jettySize=auto;html=1;entryX=0;entryY=0.5;entryDx=0;entryDy=0;" parent="1" source="wZvX-OgocokZKJilJfJC-7" target="wZvX-OgocokZKJilJfJC-20" edge="1">
          <mxGeometry relative="1" as="geometry">
            <Array as="points">
              <mxPoint x="340" y="205" />
              <mxPoint x="340" y="450" />
            </Array>
          </mxGeometry>
        </mxCell>
        <mxCell id="wZvX-OgocokZKJilJfJC-32" style="edgeStyle=orthogonalEdgeStyle;rounded=0;orthogonalLoop=1;jettySize=auto;html=1;entryX=0;entryY=0.5;entryDx=0;entryDy=0;" parent="1" source="wZvX-OgocokZKJilJfJC-7" target="wZvX-OgocokZKJilJfJC-23" edge="1">
          <mxGeometry relative="1" as="geometry">
            <Array as="points">
              <mxPoint x="340" y="205" />
              <mxPoint x="340" y="930" />
            </Array>
          </mxGeometry>
        </mxCell>
        <mxCell id="M7PoguNKKWOjKmHQY8kr-1" style="edgeStyle=orthogonalEdgeStyle;rounded=0;orthogonalLoop=1;jettySize=auto;html=1;entryX=0.5;entryY=0;entryDx=0;entryDy=0;" edge="1" parent="1" source="wZvX-OgocokZKJilJfJC-7" target="wZvX-OgocokZKJilJfJC-51">
          <mxGeometry relative="1" as="geometry">
            <Array as="points">
              <mxPoint x="340" y="205" />
              <mxPoint x="340" y="50" />
              <mxPoint x="1035" y="50" />
            </Array>
          </mxGeometry>
        </mxCell>
        <mxCell id="wZvX-OgocokZKJilJfJC-7" value="main.js" style="html=1;whiteSpace=wrap;" parent="1" vertex="1">
          <mxGeometry x="40" y="30" width="110" height="350" as="geometry" />
        </mxCell>
        <mxCell id="wZvX-OgocokZKJilJfJC-33" style="edgeStyle=orthogonalEdgeStyle;rounded=0;orthogonalLoop=1;jettySize=auto;html=1;entryX=1;entryY=0.5;entryDx=0;entryDy=0;" parent="1" source="wZvX-OgocokZKJilJfJC-9" target="wZvX-OgocokZKJilJfJC-14" edge="1">
          <mxGeometry relative="1" as="geometry">
            <Array as="points">
              <mxPoint x="600" y="80" />
              <mxPoint x="600" y="200" />
            </Array>
          </mxGeometry>
        </mxCell>
        <mxCell id="wZvX-OgocokZKJilJfJC-9" value="error_handler.js" style="html=1;whiteSpace=wrap;" parent="1" vertex="1">
          <mxGeometry x="440" y="60" width="130" height="40" as="geometry" />
        </mxCell>
        <mxCell id="wZvX-OgocokZKJilJfJC-36" style="edgeStyle=orthogonalEdgeStyle;rounded=0;orthogonalLoop=1;jettySize=auto;html=1;exitX=1;exitY=0.5;exitDx=0;exitDy=0;" parent="1" source="wZvX-OgocokZKJilJfJC-11" target="wZvX-OgocokZKJilJfJC-35" edge="1">
          <mxGeometry relative="1" as="geometry" />
        </mxCell>
        <mxCell id="wZvX-OgocokZKJilJfJC-37" style="edgeStyle=orthogonalEdgeStyle;rounded=0;orthogonalLoop=1;jettySize=auto;html=1;exitX=1;exitY=0.75;exitDx=0;exitDy=0;entryX=1;entryY=0.25;entryDx=0;entryDy=0;" parent="1" source="wZvX-OgocokZKJilJfJC-11" target="wZvX-OgocokZKJilJfJC-14" edge="1">
          <mxGeometry relative="1" as="geometry">
            <Array as="points">
              <mxPoint x="590" y="150" />
              <mxPoint x="590" y="190" />
            </Array>
          </mxGeometry>
        </mxCell>
        <mxCell id="wZvX-OgocokZKJilJfJC-11" value="config_reader.js" style="html=1;whiteSpace=wrap;" parent="1" vertex="1">
          <mxGeometry x="440" y="120" width="130" height="40" as="geometry" />
        </mxCell>
        <mxCell id="wZvX-OgocokZKJilJfJC-14" value="application_config.js" style="html=1;whiteSpace=wrap;" parent="1" vertex="1">
          <mxGeometry x="440" y="180" width="130" height="40" as="geometry" />
        </mxCell>
        <mxCell id="wZvX-OgocokZKJilJfJC-38" style="edgeStyle=orthogonalEdgeStyle;rounded=0;orthogonalLoop=1;jettySize=auto;html=1;entryX=1;entryY=0.5;entryDx=0;entryDy=0;" parent="1" source="wZvX-OgocokZKJilJfJC-15" target="wZvX-OgocokZKJilJfJC-16" edge="1">
          <mxGeometry relative="1" as="geometry">
            <Array as="points">
              <mxPoint x="590" y="260" />
              <mxPoint x="590" y="320" />
            </Array>
          </mxGeometry>
        </mxCell>
        <mxCell id="wZvX-OgocokZKJilJfJC-15" value="menubar_handler.js" style="html=1;whiteSpace=wrap;" parent="1" vertex="1">
          <mxGeometry x="440" y="240" width="130" height="40" as="geometry" />
        </mxCell>
        <mxCell id="wZvX-OgocokZKJilJfJC-16" value="window_handler.js" style="html=1;whiteSpace=wrap;" parent="1" vertex="1">
          <mxGeometry x="440" y="300" width="130" height="40" as="geometry" />
        </mxCell>
        <mxCell id="wZvX-OgocokZKJilJfJC-17" value="ntp_handler.js" style="html=1;whiteSpace=wrap;" parent="1" vertex="1">
          <mxGeometry x="720" y="70" width="130" height="40" as="geometry" />
        </mxCell>
        <mxCell id="wZvX-OgocokZKJilJfJC-42" style="edgeStyle=orthogonalEdgeStyle;rounded=0;orthogonalLoop=1;jettySize=auto;html=1;exitX=0.5;exitY=0;exitDx=0;exitDy=0;entryX=0;entryY=0.5;entryDx=0;entryDy=0;" parent="1" source="wZvX-OgocokZKJilJfJC-20" target="wZvX-OgocokZKJilJfJC-41" edge="1">
          <mxGeometry relative="1" as="geometry">
            <mxPoint x="488.49" y="639.98" as="sourcePoint" />
            <mxPoint x="720" y="268.8999999999999" as="targetPoint" />
            <Array as="points">
              <mxPoint x="505" y="370" />
              <mxPoint x="690" y="370" />
              <mxPoint x="690" y="300" />
            </Array>
          </mxGeometry>
        </mxCell>
        <mxCell id="wZvX-OgocokZKJilJfJC-46" value="Weather" style="verticalAlign=top;align=left;spacingTop=8;spacingLeft=2;spacingRight=12;shape=cube;size=10;direction=south;fontStyle=4;html=1;whiteSpace=wrap;fontColor=light-dark(#000000,#9AC7BF);strokeColor=light-dark(#000000,#9AC7BF);" parent="1" vertex="1">
          <mxGeometry x="920" y="420" width="640" height="340" as="geometry" />
        </mxCell>
        <mxCell id="wZvX-OgocokZKJilJfJC-45" style="edgeStyle=orthogonalEdgeStyle;rounded=0;orthogonalLoop=1;jettySize=auto;html=1;exitX=0.5;exitY=0;exitDx=0;exitDy=0;entryX=0;entryY=0.5;entryDx=0;entryDy=0;" parent="1" source="wZvX-OgocokZKJilJfJC-20" target="wZvX-OgocokZKJilJfJC-40" edge="1">
          <mxGeometry relative="1" as="geometry">
            <Array as="points">
              <mxPoint x="505" y="370" />
              <mxPoint x="690" y="370" />
              <mxPoint x="690" y="210" />
            </Array>
          </mxGeometry>
        </mxCell>
        <mxCell id="wZvX-OgocokZKJilJfJC-56" style="edgeStyle=orthogonalEdgeStyle;rounded=0;orthogonalLoop=1;jettySize=auto;html=1;" parent="1" source="wZvX-OgocokZKJilJfJC-20" target="wZvX-OgocokZKJilJfJC-47" edge="1">
          <mxGeometry relative="1" as="geometry">
            <Array as="points">
              <mxPoint x="910" y="450" />
              <mxPoint x="910" y="470" />
            </Array>
          </mxGeometry>
        </mxCell>
        <mxCell id="wZvX-OgocokZKJilJfJC-69" style="edgeStyle=orthogonalEdgeStyle;rounded=0;orthogonalLoop=1;jettySize=auto;html=1;exitX=0.25;exitY=1;exitDx=0;exitDy=0;" parent="1" source="wZvX-OgocokZKJilJfJC-20" target="wZvX-OgocokZKJilJfJC-68" edge="1">
          <mxGeometry relative="1" as="geometry">
            <Array as="points">
              <mxPoint x="472" y="490" />
              <mxPoint x="410" y="490" />
              <mxPoint x="410" y="540" />
            </Array>
          </mxGeometry>
        </mxCell>
        <mxCell id="wZvX-OgocokZKJilJfJC-70" style="edgeStyle=orthogonalEdgeStyle;rounded=0;orthogonalLoop=1;jettySize=auto;html=1;entryX=0;entryY=0.5;entryDx=0;entryDy=0;exitX=0.25;exitY=1;exitDx=0;exitDy=0;" parent="1" source="wZvX-OgocokZKJilJfJC-20" target="wZvX-OgocokZKJilJfJC-63" edge="1">
          <mxGeometry relative="1" as="geometry">
            <Array as="points">
              <mxPoint x="472" y="490" />
              <mxPoint x="410" y="490" />
              <mxPoint x="410" y="600" />
            </Array>
          </mxGeometry>
        </mxCell>
        <mxCell id="wZvX-OgocokZKJilJfJC-81" style="edgeStyle=orthogonalEdgeStyle;rounded=0;orthogonalLoop=1;jettySize=auto;html=1;exitX=0.25;exitY=1;exitDx=0;exitDy=0;entryX=0;entryY=0.5;entryDx=0;entryDy=0;" parent="1" source="wZvX-OgocokZKJilJfJC-20" target="wZvX-OgocokZKJilJfJC-64" edge="1">
          <mxGeometry relative="1" as="geometry">
            <Array as="points">
              <mxPoint x="473" y="490" />
              <mxPoint x="410" y="490" />
              <mxPoint x="410" y="660" />
            </Array>
          </mxGeometry>
        </mxCell>
        <mxCell id="wZvX-OgocokZKJilJfJC-82" style="edgeStyle=orthogonalEdgeStyle;rounded=0;orthogonalLoop=1;jettySize=auto;html=1;exitX=0.25;exitY=1;exitDx=0;exitDy=0;entryX=0;entryY=0.5;entryDx=0;entryDy=0;" parent="1" source="wZvX-OgocokZKJilJfJC-20" target="wZvX-OgocokZKJilJfJC-65" edge="1">
          <mxGeometry relative="1" as="geometry">
            <Array as="points">
              <mxPoint x="472" y="490" />
              <mxPoint x="410" y="490" />
              <mxPoint x="410" y="720" />
            </Array>
          </mxGeometry>
        </mxCell>
        <mxCell id="wZvX-OgocokZKJilJfJC-83" style="edgeStyle=orthogonalEdgeStyle;rounded=0;orthogonalLoop=1;jettySize=auto;html=1;exitX=0.25;exitY=1;exitDx=0;exitDy=0;entryX=0;entryY=0.5;entryDx=0;entryDy=0;" parent="1" source="wZvX-OgocokZKJilJfJC-20" target="wZvX-OgocokZKJilJfJC-66" edge="1">
          <mxGeometry relative="1" as="geometry">
            <Array as="points">
              <mxPoint x="472" y="490" />
              <mxPoint x="690" y="490" />
              <mxPoint x="690" y="540" />
            </Array>
          </mxGeometry>
        </mxCell>
        <mxCell id="wZvX-OgocokZKJilJfJC-84" style="edgeStyle=orthogonalEdgeStyle;rounded=0;orthogonalLoop=1;jettySize=auto;html=1;exitX=0.25;exitY=1;exitDx=0;exitDy=0;entryX=0;entryY=0.5;entryDx=0;entryDy=0;" parent="1" source="wZvX-OgocokZKJilJfJC-20" target="wZvX-OgocokZKJilJfJC-67" edge="1">
          <mxGeometry relative="1" as="geometry">
            <Array as="points">
              <mxPoint x="473" y="490" />
              <mxPoint x="690" y="490" />
              <mxPoint x="690" y="600" />
            </Array>
          </mxGeometry>
        </mxCell>
        <mxCell id="wZvX-OgocokZKJilJfJC-20" value="Information_Master.js" style="html=1;whiteSpace=wrap;" parent="1" vertex="1">
          <mxGeometry x="440" y="430" width="130" height="40" as="geometry" />
        </mxCell>
        <mxCell id="wZvX-OgocokZKJilJfJC-23" value="UpdateChecker.js" style="html=1;whiteSpace=wrap;" parent="1" vertex="1">
          <mxGeometry x="450" y="910" width="110" height="40" as="geometry" />
        </mxCell>
        <mxCell id="wZvX-OgocokZKJilJfJC-35" value="appdata_handler.js" style="html=1;whiteSpace=wrap;" parent="1" vertex="1">
          <mxGeometry x="720" y="130" width="130" height="40" as="geometry" />
        </mxCell>
        <mxCell id="wZvX-OgocokZKJilJfJC-52" style="edgeStyle=orthogonalEdgeStyle;rounded=0;orthogonalLoop=1;jettySize=auto;html=1;exitX=0;exitY=0.5;exitDx=0;exitDy=0;entryX=1;entryY=0.5;entryDx=0;entryDy=0;" parent="1" source="wZvX-OgocokZKJilJfJC-51" target="wZvX-OgocokZKJilJfJC-40" edge="1">
          <mxGeometry relative="1" as="geometry" />
        </mxCell>
        <mxCell id="wZvX-OgocokZKJilJfJC-40" value="http_request.js" style="html=1;whiteSpace=wrap;" parent="1" vertex="1">
          <mxGeometry x="720" y="190" width="130" height="40" as="geometry" />
        </mxCell>
        <mxCell id="wZvX-OgocokZKJilJfJC-53" style="edgeStyle=orthogonalEdgeStyle;rounded=0;orthogonalLoop=1;jettySize=auto;html=1;exitX=0;exitY=0.75;exitDx=0;exitDy=0;entryX=1;entryY=0.5;entryDx=0;entryDy=0;" parent="1" source="wZvX-OgocokZKJilJfJC-51" target="wZvX-OgocokZKJilJfJC-41" edge="1">
          <mxGeometry relative="1" as="geometry">
            <Array as="points">
              <mxPoint x="910" y="130" />
              <mxPoint x="910" y="300" />
            </Array>
          </mxGeometry>
        </mxCell>
        <mxCell id="wZvX-OgocokZKJilJfJC-41" value="websocket_handler.js" style="html=1;whiteSpace=wrap;" parent="1" vertex="1">
          <mxGeometry x="720" y="280" width="130" height="40" as="geometry" />
        </mxCell>
        <mxCell id="wZvX-OgocokZKJilJfJC-75" style="edgeStyle=orthogonalEdgeStyle;rounded=0;orthogonalLoop=1;jettySize=auto;html=1;exitX=0;exitY=0.5;exitDx=0;exitDy=0;entryX=0;entryY=0.5;entryDx=0;entryDy=0;" parent="1" source="wZvX-OgocokZKJilJfJC-47" target="wZvX-OgocokZKJilJfJC-57" edge="1">
          <mxGeometry relative="1" as="geometry">
            <Array as="points">
              <mxPoint x="930" y="480" />
              <mxPoint x="930" y="540" />
            </Array>
          </mxGeometry>
        </mxCell>
        <mxCell id="wZvX-OgocokZKJilJfJC-76" style="edgeStyle=orthogonalEdgeStyle;rounded=0;orthogonalLoop=1;jettySize=auto;html=1;exitX=0;exitY=0.5;exitDx=0;exitDy=0;entryX=0;entryY=0.5;entryDx=0;entryDy=0;" parent="1" source="wZvX-OgocokZKJilJfJC-47" target="wZvX-OgocokZKJilJfJC-58" edge="1">
          <mxGeometry relative="1" as="geometry">
            <Array as="points">
              <mxPoint x="930" y="480" />
              <mxPoint x="930" y="600" />
            </Array>
          </mxGeometry>
        </mxCell>
        <mxCell id="wZvX-OgocokZKJilJfJC-77" style="edgeStyle=orthogonalEdgeStyle;rounded=0;orthogonalLoop=1;jettySize=auto;html=1;exitX=0;exitY=0.5;exitDx=0;exitDy=0;entryX=0;entryY=0.5;entryDx=0;entryDy=0;" parent="1" source="wZvX-OgocokZKJilJfJC-47" target="wZvX-OgocokZKJilJfJC-59" edge="1">
          <mxGeometry relative="1" as="geometry">
            <Array as="points">
              <mxPoint x="930" y="480" />
              <mxPoint x="930" y="660" />
            </Array>
          </mxGeometry>
        </mxCell>
        <mxCell id="wZvX-OgocokZKJilJfJC-78" style="edgeStyle=orthogonalEdgeStyle;rounded=0;orthogonalLoop=1;jettySize=auto;html=1;exitX=0;exitY=0.5;exitDx=0;exitDy=0;entryX=0;entryY=0.5;entryDx=0;entryDy=0;" parent="1" source="wZvX-OgocokZKJilJfJC-47" target="wZvX-OgocokZKJilJfJC-60" edge="1">
          <mxGeometry relative="1" as="geometry">
            <Array as="points">
              <mxPoint x="930" y="480" />
              <mxPoint x="930" y="720" />
            </Array>
          </mxGeometry>
        </mxCell>
        <mxCell id="wZvX-OgocokZKJilJfJC-79" style="edgeStyle=orthogonalEdgeStyle;rounded=0;orthogonalLoop=1;jettySize=auto;html=1;exitX=1;exitY=0.25;exitDx=0;exitDy=0;" parent="1" source="wZvX-OgocokZKJilJfJC-47" target="wZvX-OgocokZKJilJfJC-61" edge="1">
          <mxGeometry relative="1" as="geometry">
            <Array as="points">
              <mxPoint x="1080" y="480" />
              <mxPoint x="1180" y="480" />
              <mxPoint x="1180" y="500" />
            </Array>
          </mxGeometry>
        </mxCell>
        <mxCell id="wZvX-OgocokZKJilJfJC-80" style="edgeStyle=orthogonalEdgeStyle;rounded=0;orthogonalLoop=1;jettySize=auto;html=1;exitX=1;exitY=0.5;exitDx=0;exitDy=0;entryX=0;entryY=0.5;entryDx=0;entryDy=0;" parent="1" source="wZvX-OgocokZKJilJfJC-47" target="wZvX-OgocokZKJilJfJC-62" edge="1">
          <mxGeometry relative="1" as="geometry">
            <Array as="points">
              <mxPoint x="1180" y="480" />
              <mxPoint x="1180" y="560" />
            </Array>
          </mxGeometry>
        </mxCell>
        <mxCell id="wZvX-OgocokZKJilJfJC-47" value="Root.js" style="html=1;whiteSpace=wrap;" parent="1" vertex="1">
          <mxGeometry x="950" y="460" width="130" height="40" as="geometry" />
        </mxCell>
        <mxCell id="wZvX-OgocokZKJilJfJC-51" value="local_websocket_handler.js" style="html=1;whiteSpace=wrap;" parent="1" vertex="1">
          <mxGeometry x="950" y="100" width="170" height="40" as="geometry" />
        </mxCell>
        <mxCell id="wZvX-OgocokZKJilJfJC-57" value="Downpour.js" style="html=1;whiteSpace=wrap;" parent="1" vertex="1">
          <mxGeometry x="950" y="520" width="130" height="40" as="geometry" />
        </mxCell>
        <mxCell id="wZvX-OgocokZKJilJfJC-58" value="Landslide.js" style="html=1;whiteSpace=wrap;" parent="1" vertex="1">
          <mxGeometry x="950" y="580" width="130" height="40" as="geometry" />
        </mxCell>
        <mxCell id="wZvX-OgocokZKJilJfJC-59" value="Observation.js" style="html=1;whiteSpace=wrap;" parent="1" vertex="1">
          <mxGeometry x="950" y="640" width="130" height="40" as="geometry" />
        </mxCell>
        <mxCell id="wZvX-OgocokZKJilJfJC-60" value="Tornado.js" style="html=1;whiteSpace=wrap;" parent="1" vertex="1">
          <mxGeometry x="950" y="700" width="130" height="40" as="geometry" />
        </mxCell>
        <mxCell id="wZvX-OgocokZKJilJfJC-61" value="Typhoon.js" style="html=1;whiteSpace=wrap;" parent="1" vertex="1">
          <mxGeometry x="1200" y="480" width="130" height="40" as="geometry" />
        </mxCell>
        <mxCell id="wZvX-OgocokZKJilJfJC-62" value="Warning.js" style="html=1;whiteSpace=wrap;" parent="1" vertex="1">
          <mxGeometry x="1200" y="540" width="130" height="40" as="geometry" />
        </mxCell>
        <mxCell id="wZvX-OgocokZKJilJfJC-71" style="edgeStyle=orthogonalEdgeStyle;rounded=0;orthogonalLoop=1;jettySize=auto;html=1;entryX=0;entryY=0.75;entryDx=0;entryDy=0;" parent="1" source="wZvX-OgocokZKJilJfJC-63" target="wZvX-OgocokZKJilJfJC-40" edge="1">
          <mxGeometry relative="1" as="geometry">
            <Array as="points">
              <mxPoint x="600" y="600" />
              <mxPoint x="600" y="220" />
            </Array>
          </mxGeometry>
        </mxCell>
        <mxCell id="wZvX-OgocokZKJilJfJC-73" style="edgeStyle=orthogonalEdgeStyle;rounded=0;orthogonalLoop=1;jettySize=auto;html=1;entryX=0.25;entryY=1;entryDx=0;entryDy=0;" parent="1" target="wZvX-OgocokZKJilJfJC-72" edge="1">
          <mxGeometry relative="1" as="geometry">
            <mxPoint x="1050" y="390" as="targetPoint" />
            <Array as="points">
              <mxPoint x="600" y="600" />
              <mxPoint x="600" y="340" />
              <mxPoint x="1012" y="340" />
              <mxPoint x="1012" y="290" />
            </Array>
            <mxPoint x="570" y="600" as="sourcePoint" />
          </mxGeometry>
        </mxCell>
        <mxCell id="wZvX-OgocokZKJilJfJC-63" value="EEW.js" style="html=1;whiteSpace=wrap;" parent="1" vertex="1">
          <mxGeometry x="440" y="580" width="130" height="40" as="geometry" />
        </mxCell>
        <mxCell id="wZvX-OgocokZKJilJfJC-64" value="River.js" style="html=1;whiteSpace=wrap;" parent="1" vertex="1">
          <mxGeometry x="440" y="640" width="130" height="40" as="geometry" />
        </mxCell>
        <mxCell id="wZvX-OgocokZKJilJfJC-65" value="Tsunami.js" style="html=1;whiteSpace=wrap;" parent="1" vertex="1">
          <mxGeometry x="440" y="700" width="130" height="40" as="geometry" />
        </mxCell>
        <mxCell id="wZvX-OgocokZKJilJfJC-66" value="Volcano.js" style="html=1;whiteSpace=wrap;" parent="1" vertex="1">
          <mxGeometry x="710" y="520" width="130" height="40" as="geometry" />
        </mxCell>
        <mxCell id="wZvX-OgocokZKJilJfJC-85" style="edgeStyle=orthogonalEdgeStyle;rounded=0;orthogonalLoop=1;jettySize=auto;html=1;exitX=1;exitY=0.25;exitDx=0;exitDy=0;entryX=1;entryY=0.75;entryDx=0;entryDy=0;" parent="1" source="wZvX-OgocokZKJilJfJC-67" target="wZvX-OgocokZKJilJfJC-40" edge="1">
          <mxGeometry relative="1" as="geometry">
            <Array as="points">
              <mxPoint x="840" y="600" />
              <mxPoint x="880" y="600" />
              <mxPoint x="880" y="220" />
            </Array>
          </mxGeometry>
        </mxCell>
        <mxCell id="wZvX-OgocokZKJilJfJC-86" style="edgeStyle=orthogonalEdgeStyle;rounded=0;orthogonalLoop=1;jettySize=auto;html=1;exitX=1;exitY=0.5;exitDx=0;exitDy=0;entryX=0.5;entryY=1;entryDx=0;entryDy=0;" parent="1" source="wZvX-OgocokZKJilJfJC-67" target="wZvX-OgocokZKJilJfJC-72" edge="1">
          <mxGeometry relative="1" as="geometry">
            <Array as="points">
              <mxPoint x="880" y="600" />
              <mxPoint x="880" y="350" />
              <mxPoint x="1055" y="350" />
            </Array>
          </mxGeometry>
        </mxCell>
        <mxCell id="wZvX-OgocokZKJilJfJC-67" value="Mscale.js" style="html=1;whiteSpace=wrap;" parent="1" vertex="1">
          <mxGeometry x="710" y="580" width="130" height="40" as="geometry" />
        </mxCell>
        <mxCell id="wZvX-OgocokZKJilJfJC-68" value="Earthquake.js" style="html=1;whiteSpace=wrap;" parent="1" vertex="1">
          <mxGeometry x="440" y="520" width="130" height="40" as="geometry" />
        </mxCell>
        <mxCell id="wZvX-OgocokZKJilJfJC-72" value="handle_interval_function.js" style="html=1;whiteSpace=wrap;" parent="1" vertex="1">
          <mxGeometry x="970" y="250" width="170" height="40" as="geometry" />
        </mxCell>
      </root>
    </mxGraphModel>
  </diagram>
</mxfile>
